<svg width="401" height="424" viewBox="0 0 401 424" fill="none" xmlns="http://www.w3.org/2000/svg">
<path fill-rule="evenodd" clip-rule="evenodd" d="M269.825 121C240.022 204.144 272.738 209.35 315.017 209.351C315.337 208.432 315.657 207.516 315.976 206.603C318.398 199.67 320.759 192.911 322.705 186.399H400.978C400.932 189.523 400.817 192.683 400.633 195.877C400.379 200.294 399.951 204.823 399.388 209.355C398.612 215.607 397.541 221.968 396.178 228.441C392.27 246.992 385.969 266.398 377.238 286.765C363.553 318.688 347.241 345.121 328.3 366.066C309.51 386.66 288.768 401.64 266.074 411.005C243.38 420.371 219.536 424.674 194.541 423.915C169.546 423.155 144.077 417.208 118.134 406.073C91.8399 394.787 69.6293 380.27 51.5021 362.522C33.3749 344.774 19.8818 324.445 11.0229 301.537C2.31441 278.278 -1.23407 252.665 0.377483 224.698C2.49 196.531 10.3133 166.661 23.8475 135.089C36.6298 105.271 52.3408 80.2404 70.9807 59.9973C89.6206 39.7542 110.263 24.5238 132.907 14.3061C155.901 4.23889 180.146 -0.515096 205.642 0.0441473C231.288 0.252575 257.609 6.14996 284.604 17.7363C309.846 28.5703 331.431 42.6109 349.358 59.8581C367.285 77.1053 380.678 97.1829 389.537 120.091C395.22 134.32 398.79 149.626 400.247 166.008H328.137C334.356 140.849 336.667 118.997 335.069 100.452C333.472 81.9064 328.118 66.3171 319.005 53.6838C310.393 40.8501 298.024 30.9724 281.897 24.0507C265.42 16.9785 249.391 14.668 233.813 17.1191C218.384 19.2194 203.155 26.1815 188.124 38.0054C173.444 49.9798 159.037 66.6406 144.905 87.9878C130.773 109.335 116.94 135.795 103.406 167.367C89.8718 198.939 80.0954 227.555 74.0766 253.215C68.0578 278.875 65.6966 301.329 66.993 320.575C68.7903 339.622 74.0949 355.813 82.9067 369.148C91.8688 382.132 104.589 392.16 121.066 399.232C137.193 406.154 152.871 408.314 168.099 405.712C183.678 403.261 198.807 396.049 213.488 384.074C228.318 371.749 242.699 354.662 256.631 332.814C271.064 310.765 285.198 283.604 299.033 251.33C302.357 243.575 305.287 236.025 308.137 228.681C240.746 225.503 212.642 264.066 177.04 320C209.745 226.81 172.815 219.594 139.177 213.021C133.582 211.928 128.077 210.853 123 209.402C202.051 204.976 227.631 197.406 269.825 121Z" fill="url(#paint0_linear_1308_43)"/>
<defs>
<linearGradient id="paint0_linear_1308_43" x1="200.489" y1="0" x2="200.489" y2="424" gradientUnits="userSpaceOnUse">
<stop stop-color="#F9A825"/>
<stop offset="0.288462" stop-color="#E94B4B"/>
<stop offset="0.701923" stop-color="#00A68C"/>
<stop offset="1" stop-color="#6A4CFF"/>
</linearGradient>
</defs>
</svg>
