<svg width="402" height="424" viewBox="0 0 402 424" fill="none" xmlns="http://www.w3.org/2000/svg">
<path d="M270.625 121C240.82 204.15 273.543 209.351 315.826 209.351L309.469 228.42C242.078 225.242 213.442 264.066 177.84 320C215.985 211.309 159.402 219.572 123.8 209.402C202.851 204.976 228.431 197.406 270.625 121Z" fill="url(#paint0_linear_1324_853)"/>
<path d="M309.032 228.441H396.978C398.341 221.968 399.411 215.607 400.188 209.355H315.815C313.655 215.555 311.564 221.916 309.032 228.441Z" fill="url(#paint1_linear_1324_853)"/>
<path fill-rule="evenodd" clip-rule="evenodd" d="M285.404 17.7363C310.646 28.5703 332.231 42.6109 350.158 59.8581C368.085 77.1053 381.478 97.1829 390.336 120.091C398.317 140.071 402.13 162.174 401.777 186.399H323.505C325.608 179.362 327.434 172.565 328.937 166.008C335.156 140.849 337.466 118.997 335.869 100.452C334.272 81.9064 328.917 66.3171 319.805 53.6838C311.193 40.8501 298.824 30.9724 282.697 24.0507C266.219 16.9785 250.191 14.668 234.612 17.1191C219.184 19.2194 203.954 26.1815 188.924 38.0054C174.243 49.9798 159.837 66.6406 145.705 87.9878C131.573 109.335 117.74 135.795 104.206 167.367C90.6716 198.939 80.8952 227.555 74.8764 253.215C68.8576 278.875 66.4964 301.329 67.7928 320.575C69.5901 339.622 74.8947 355.813 83.7065 369.148C92.6686 382.132 105.388 392.16 121.866 399.232C137.993 406.154 153.671 408.314 168.899 405.712C184.478 403.261 199.607 396.049 214.287 384.074C229.118 371.749 243.499 354.662 257.431 332.814C271.864 310.765 285.998 283.604 299.833 251.33C303.157 243.575 306.087 236.025 308.937 228.681L309.032 228.441H396.978C393.069 246.992 386.769 266.398 378.038 286.765C364.353 318.688 348.041 345.121 329.1 366.066C310.31 386.66 289.568 401.64 266.874 411.005C244.18 420.371 220.336 424.674 195.341 423.915C170.346 423.155 144.877 417.208 118.934 406.073C92.6397 394.787 70.4291 380.27 52.3019 362.522C34.1747 344.773 20.6816 324.445 11.8227 301.537C3.11422 278.278 -0.434264 252.665 1.17729 224.698C3.2898 196.531 11.1131 166.661 24.6473 135.089C37.4296 105.271 53.1406 80.2404 71.7805 59.9973C90.4204 39.7542 111.062 24.5238 133.706 14.3061C156.701 4.23889 180.946 -0.515096 206.442 0.0441473C232.088 0.252575 258.409 6.14996 285.404 17.7363Z" fill="url(#paint2_linear_1324_853)"/>
<defs>
<linearGradient id="paint0_linear_1324_853" x1="201.3" y1="0" x2="201.3" y2="424" gradientUnits="userSpaceOnUse">
<stop stop-color="#F9A825"/>
<stop offset="0.288462" stop-color="#E94B4B"/>
<stop offset="0.701923" stop-color="#00A68C"/>
<stop offset="1" stop-color="#6A4CFF"/>
</linearGradient>
<linearGradient id="paint1_linear_1324_853" x1="201.3" y1="0" x2="201.3" y2="424" gradientUnits="userSpaceOnUse">
<stop stop-color="#F9A825"/>
<stop offset="0.288462" stop-color="#E94B4B"/>
<stop offset="0.701923" stop-color="#00A68C"/>
<stop offset="1" stop-color="#6A4CFF"/>
</linearGradient>
<linearGradient id="paint2_linear_1324_853" x1="201.3" y1="0" x2="201.3" y2="424" gradientUnits="userSpaceOnUse">
<stop stop-color="#F9A825"/>
<stop offset="0.288462" stop-color="#E94B4B"/>
<stop offset="0.701923" stop-color="#00A68C"/>
<stop offset="1" stop-color="#6A4CFF"/>
</linearGradient>
</defs>
</svg>
