<svg width="878" height="209" viewBox="0 0 878 209" fill="none" xmlns="http://www.w3.org/2000/svg">
<path d="M765 36.2721C788.766 31.5369 788.859 40.6174 787.156 52.0893L792.586 51.133C794.439 32.7212 806.128 26.5239 822.741 19.1189C791.709 25.0876 796.231 10.0692 794.906 0C790.52 21.269 787.434 27.9039 765 36.2721Z" fill="black"/>
<path d="M67.8 61.4C77.4 61.4 86.2667 62.9333 94.4 66C102.533 69.0667 109.6 73.6667 115.6 79.8C121.6 85.8 126.267 93.4 129.6 102.6C132.933 111.8 134.6 122.6 134.6 135C134.6 147.133 133 157.867 129.8 167.2C126.6 176.4 122 184.067 116 190.2C110 196.333 102.933 201 94.8 204.2C86.6667 207.4 77.6667 209 67.8 209C57.8 209 48.6667 207.4 40.4 204.2C32.1333 201 25 196.333 19 190.2C13 183.933 8.33335 176.2 5.00001 167C1.80001 157.667 0.200012 147 0.200012 135C0.200012 123.667 1.80001 113.467 5.00001 104.4C8.20001 95.3333 12.7333 87.6 18.6 81.2C24.6 74.8 31.7333 69.9333 40 66.6C48.2667 63.1333 57.5333 61.4 67.8 61.4ZM67.8 63.8C61.5333 63.8 56.0667 65.2667 51.4 68.2C46.7333 71 42.8 75.3333 39.6 81.2C36.5333 87.0667 34.2 94.4 32.6 103.2C31 112 30.2 122.4 30.2 134.4C30.2 146.4 31 156.933 32.6 166C34.2 175.067 36.5333 182.6 39.6 188.6C42.8 194.467 46.7333 198.933 51.4 202C56.0667 204.933 61.5333 206.4 67.8 206.4C73.9333 206.4 79.2667 204.933 83.8 202C88.4667 199.067 92.3334 194.667 95.4 188.8C98.4667 182.8 100.733 175.333 102.2 166.4C103.8 157.333 104.6 146.667 104.6 134.4C104.6 122.267 103.8 111.8 102.2 103C100.733 94.0667 98.4667 86.7333 95.4 81C92.3334 75.2667 88.4667 71 83.8 68.2C79.2667 65.2667 73.9333 63.8 67.8 63.8Z" fill="black"/>
<path d="M276.083 204V206H225.883V204L236.483 202V134.2C236.483 127.133 235.283 121.8 232.883 118.2C230.483 114.6 227.016 112.8 222.483 112.8C219.416 112.8 216.283 114 213.083 116.4C210.016 118.667 207.016 121.667 204.083 125.4C201.283 129 198.749 132.733 196.483 136.6C194.216 140.467 192.416 144 191.083 147.2V202L201.683 204V206H152.283V204L163.083 202V112.4H151.483V110.2L191.083 103V135.8L192.683 137.2C196.016 130.4 199.749 124.467 203.883 119.4C208.149 114.2 212.883 110.2 218.083 107.4C223.283 104.467 229.016 103 235.283 103C240.749 103 245.349 103.867 249.083 105.6C252.816 107.2 255.749 109.6 257.883 112.8C260.149 115.867 261.816 119.6 262.883 124C263.95 128.267 264.483 133 264.483 138.2V202L276.083 204Z" fill="black"/>
<path d="M343.225 103C354.292 103 363.425 105.2 370.625 109.6C377.825 114 383.225 119.867 386.825 127.2C390.425 134.533 392.225 142.8 392.225 152H316.425V150L366.225 147.4C366.225 138.467 365.425 130.867 363.825 124.6C362.225 118.333 359.692 113.6 356.225 110.4C352.892 107.067 348.492 105.4 343.025 105.4C337.692 105.4 333.025 107.133 329.025 110.6C325.158 114.067 322.158 119.333 320.025 126.4C318.025 133.333 317.025 142.267 317.025 153.2C317.025 159.2 317.758 165 319.225 170.6C320.825 176.067 323.092 181.067 326.025 185.6C329.092 190 332.825 193.533 337.225 196.2C341.625 198.733 346.758 200 352.625 200C356.225 200 359.825 199.467 363.425 198.4C367.025 197.333 370.425 195.8 373.625 193.8C376.825 191.8 379.758 189.4 382.425 186.6C385.092 183.667 387.292 180.267 389.025 176.4L391.225 178.4C388.158 184.667 384.625 189.8 380.625 193.8C376.758 197.8 372.558 200.933 368.025 203.2C363.492 205.333 358.892 206.8 354.225 207.6C349.558 208.533 344.958 209 340.425 209C332.158 209 324.825 207.6 318.425 204.8C312.025 202 306.558 198.2 302.025 193.4C297.625 188.467 294.225 182.933 291.825 176.8C289.558 170.533 288.425 164.067 288.425 157.4C288.425 149 289.758 141.467 292.425 134.8C295.225 128.133 299.025 122.467 303.825 117.8C308.758 113 314.558 109.333 321.225 106.8C327.892 104.267 335.225 103 343.225 103Z" fill="black"/>
<path d="M516.133 57V198.8H527.933V201L488.133 209V177.2L486.533 175.6C485.199 179.333 483.399 183.2 481.133 187.2C478.999 191.067 476.399 194.667 473.333 198C470.266 201.2 466.666 203.867 462.533 206C458.533 208 454.066 209 449.133 209C441.133 209 434.066 206.8 427.933 202.4C421.933 198 417.266 192 413.933 184.4C410.599 176.667 408.933 168 408.933 158.4C408.933 146 410.933 135.733 414.933 127.6C418.933 119.333 424.266 113.2 430.933 109.2C437.733 105.067 445.133 103 453.133 103C459.666 103 465.266 104.067 469.933 106.2C474.733 108.333 478.666 110.933 481.733 114C484.799 116.933 486.933 119.933 488.133 123V67.2H476.533V65L516.133 57ZM464.333 109.8C458.866 109.8 454.133 111.8 450.133 115.8C446.133 119.667 443.066 125 440.933 131.8C438.799 138.6 437.733 146.333 437.733 155C437.733 164.733 438.599 172.933 440.333 179.6C442.066 186.133 444.533 191.067 447.733 194.4C451.066 197.6 455 199.2 459.533 199.2C463 199.2 466.133 198.333 468.933 196.6C471.733 194.733 474.333 192.2 476.733 189C479.133 185.667 481.266 181.867 483.133 177.6C485 173.2 486.666 168.4 488.133 163.2V140.4C488.133 136.267 487.533 132.333 486.333 128.6C485.133 124.733 483.466 121.467 481.333 118.8C479.199 116 476.666 113.8 473.733 112.2C470.799 110.6 467.666 109.8 464.333 109.8Z" fill="black"/>
<path d="M595.959 103C607.026 103 616.159 105.2 623.359 109.6C630.559 114 635.959 119.867 639.559 127.2C643.159 134.533 644.959 142.8 644.959 152H569.159V150L618.959 147.4C618.959 138.467 618.159 130.867 616.559 124.6C614.959 118.333 612.426 113.6 608.959 110.4C605.626 107.067 601.226 105.4 595.759 105.4C590.426 105.4 585.759 107.133 581.759 110.6C577.893 114.067 574.893 119.333 572.759 126.4C570.759 133.333 569.759 142.267 569.759 153.2C569.759 159.2 570.493 165 571.959 170.6C573.559 176.067 575.826 181.067 578.759 185.6C581.826 190 585.559 193.533 589.959 196.2C594.359 198.733 599.493 200 605.359 200C608.959 200 612.559 199.467 616.159 198.4C619.759 197.333 623.159 195.8 626.359 193.8C629.559 191.8 632.493 189.4 635.159 186.6C637.826 183.667 640.026 180.267 641.759 176.4L643.959 178.4C640.893 184.667 637.359 189.8 633.359 193.8C629.493 197.8 625.293 200.933 620.759 203.2C616.226 205.333 611.626 206.8 606.959 207.6C602.293 208.533 597.693 209 593.159 209C584.893 209 577.559 207.6 571.159 204.8C564.759 202 559.293 198.2 554.759 193.4C550.359 188.467 546.959 182.933 544.559 176.8C542.293 170.533 541.159 164.067 541.159 157.4C541.159 149 542.493 141.467 545.159 134.8C547.959 128.133 551.759 122.467 556.559 117.8C561.493 113 567.293 109.333 573.959 106.8C580.626 104.267 587.959 103 595.959 103Z" fill="black"/>
<path d="M706.667 209C700.534 209 694.734 208.4 689.267 207.2C683.801 206.133 678.934 204.6 674.667 202.6C670.534 200.467 667.267 197.933 664.867 195C662.467 191.933 661.267 188.467 661.267 184.6C661.267 181.667 662.134 179.267 663.867 177.4C665.601 175.533 667.801 174.133 670.467 173.2C673.267 172.133 676.067 171.6 678.867 171.6C681.934 171.6 684.734 172.067 687.267 173C689.934 173.933 692.067 175.267 693.667 177C695.267 178.733 696.067 180.933 696.067 183.6C696.067 185.467 695.667 187.2 694.867 188.8C694.067 190.267 692.801 191.733 691.067 193.2C688.934 194.8 687.467 196.133 686.667 197.2C686 198.133 685.667 199.2 685.667 200.4C685.667 201.333 686.467 202.333 688.067 203.4C689.667 204.333 691.934 205.133 694.867 205.8C697.801 206.467 701.267 206.8 705.267 206.8C710.734 206.8 715.601 206.133 719.867 204.8C724.134 203.467 727.467 201.467 729.867 198.8C732.401 196 733.667 192.467 733.667 188.2C733.667 184.733 732.601 181.6 730.467 178.8C728.467 176 725.067 173.333 720.267 170.8C715.467 168.267 708.867 165.6 700.467 162.8C691.001 159.467 683.467 156.133 677.867 152.8C672.401 149.467 668.467 146 666.067 142.4C663.801 138.667 662.667 134.667 662.667 130.4C662.667 122 666.801 115.333 675.067 110.4C683.467 105.467 694.867 103 709.267 103C717.001 103 724.134 104 730.667 106C737.201 108 742.467 110.8 746.467 114.4C750.467 117.867 752.467 122.067 752.467 127C752.467 129.667 751.667 131.933 750.067 133.8C748.467 135.533 746.334 136.867 743.667 137.8C741.134 138.733 738.467 139.2 735.667 139.2C733.534 139.2 731.401 138.933 729.267 138.4C727.134 137.867 725.201 137.133 723.467 136.2C721.734 135.133 720.334 133.867 719.267 132.4C718.201 130.8 717.667 129.067 717.667 127.2C717.667 123.333 719.667 120 723.667 117.2C725.801 115.6 727.267 114.333 728.067 113.4C728.867 112.467 729.267 111.533 729.267 110.6C729.267 109.933 728.801 109.267 727.867 108.6C727.067 107.933 725.801 107.4 724.067 107C722.467 106.467 720.534 106.067 718.267 105.8C716.001 105.4 713.534 105.2 710.867 105.2C705.401 105.2 700.467 105.8 696.067 107C691.667 108.2 688.134 110 685.467 112.4C682.934 114.667 681.667 117.6 681.667 121.2C681.667 124.667 683 127.867 685.667 130.8C688.334 133.6 692.067 136.267 696.867 138.8C701.801 141.333 707.667 143.8 714.467 146.2C724.467 149.933 732.334 153.4 738.067 156.6C743.934 159.667 748.134 162.867 750.667 166.2C753.201 169.533 754.467 173.267 754.467 177.4C754.467 182.733 753.134 187.333 750.467 191.2C747.934 195.067 744.467 198.333 740.067 201C735.667 203.667 730.601 205.667 724.867 207C719.134 208.333 713.067 209 706.667 209Z" fill="black"/>
<path d="M808.461 202L819.261 204V206H769.661V204L780.461 202V66.4H768.661V64.2L808.461 57V202ZM806.461 151.4V148.6C810.461 148.067 814.928 146.8 819.861 144.8C824.794 142.667 829.861 140.267 835.061 137.6C839.328 135.467 842.861 133.533 845.661 131.8C848.461 130.067 850.594 128.6 852.061 127.4C853.528 126.2 854.261 125.2 854.261 124.4C854.261 123.6 853.594 122.933 852.261 122.4C850.928 121.867 849.194 121.4 847.061 121C844.928 120.467 842.661 119.867 840.261 119.2C837.994 118.4 835.794 117.467 833.661 116.4C831.528 115.2 829.794 113.733 828.461 112C827.128 110.133 826.461 107.933 826.461 105.4C826.461 102.733 827.261 100.4 828.861 98.4C830.594 96.2667 832.861 94.6 835.661 93.4C838.594 92.0667 841.928 91.4 845.661 91.4C849.794 91.4 853.394 92.1333 856.461 93.6C859.661 95.0667 862.128 97.1333 863.861 99.8C865.728 102.333 866.661 105.267 866.661 108.6C866.661 112.467 865.461 116.133 863.061 119.6C860.794 123.067 857.261 126.533 852.461 130C849.794 132 846.461 134.2 842.461 136.6C838.461 138.867 833.861 141.467 828.661 144.4V146.6H845.261C847.661 152.333 849.728 157.533 851.461 162.2C853.328 166.867 854.994 171.133 856.461 175C858.861 180.067 861.061 184.533 863.061 188.4C865.061 192.133 866.928 195.2 868.661 197.6C870.394 200 871.994 201.6 873.461 202.4C874.128 202.667 874.728 202.8 875.261 202.8C875.928 202.8 876.528 202.6 877.061 202.2V204.6C875.328 205.667 873.594 206.533 871.861 207.2C870.261 207.867 868.528 208.333 866.661 208.6C864.794 208.867 862.728 209 860.461 209C856.061 209 851.994 207.933 848.261 205.8C844.528 203.533 840.994 200.2 837.661 195.8C834.461 191.267 831.394 185.667 828.461 179C826.594 174.333 824.661 169.8 822.661 165.4C820.794 161 818.861 156.333 816.861 151.4H806.461Z" fill="black"/>
</svg>
